<svg id="Calque_1" data-name="Calque 1" xmlns="http://www.w3.org/2000/svg" xmlns:xlink="http://www.w3.org/1999/xlink" viewBox="0 0 414.42 394.86">
  <defs>
    <style>
      .cls-1, .cls-5, .cls-9 {
        fill: none;
      }

      .cls-2 {
        clip-path: url(#clip-path);
      }

      .cls-3 {
        opacity: 0.25;
      }

      .cls-4 {
        fill: #e67754;
      }

      .cls-5, .cls-9 {
        stroke: #1d1d1b;
        stroke-linejoin: round;
        stroke-width: 2px;
      }

      .cls-6 {
        fill: #35a6b1;
      }

      .cls-7 {
        fill: #f09e67;
      }

      .cls-8 {
        fill: #ea9858;
      }

      .cls-9 {
        stroke-linecap: round;
      }

      .cls-10 {
        opacity: 0.43;
      }
    </style>
    <clipPath id="clip-path" transform="translate(-3951.21 -3512.43)">
      <rect class="cls-1" x="3880.16" y="3287.94" width="595.28" height="841.89"/>
    </clipPath>
  </defs>
  <title>logotype_numaguide2</title>
  <g class="cls-2">
    <polygon class="cls-4" points="1 29.03 49.54 1 98.09 29.03 49.54 57.05 1 29.03"/>
    <polygon class="cls-5" points="1 29.03 49.54 1 98.09 29.03 49.54 57.05 1 29.03"/>
    <polygon class="cls-6" points="49.54 57.05 49.54 85.08 98.09 57.49 98.09 29.03 49.54 57.05"/>
    <polygon class="cls-5" points="49.54 57.05 49.54 85.08 98.09 57.49 98.09 29.03 49.54 57.05"/>
    <polygon class="cls-4" points="98.09 57.49 49.54 85.08 98.09 225.22 146.63 197.62 98.09 57.49"/>
    <polygon class="cls-5" points="98.09 57.49 49.54 85.08 98.09 225.22 146.63 197.62 98.09 57.49"/>
    <polygon class="cls-4" points="146.63 113.11 98.09 85.08 146.63 57.05 195.18 85.08 146.63 113.11"/>
    <polygon class="cls-5" points="146.63 113.11 98.09 85.08 146.63 57.05 195.18 85.08 146.63 113.11"/>
    <polygon class="cls-6" points="146.63 113.11 195.18 85.08 195.18 365.35 146.63 393.38 146.63 113.11"/>
    <polygon class="cls-5" points="146.63 113.11 195.18 85.08 195.18 365.35 146.63 393.38 146.63 113.11"/>
    <g class="cls-2">
      <path class="cls-6" d="M4000.93,3849.81l40.41-23q-20.3-58.56-40.58-117.14.09,70.1.17,140.19" transform="translate(-3951.21 -3512.43)"/>
      <path class="cls-5" d="M4000.93,3849.81l40.41-23q-20.3-58.56-40.58-117.14Q4000.85,3779.72,4000.93,3849.81Z" transform="translate(-3951.21 -3512.43)"/>
      <path class="cls-7" d="M4000.76,3597.51l48.54-27.59Z" transform="translate(-3951.21 -3512.43)"/>
      <path class="cls-5" d="M4000.76,3597.51l48.54-27.59Z" transform="translate(-3951.21 -3512.43)"/>
      <path class="cls-8" d="M3952.21,3541.46v280.71l48.55,27.59V3709.62l48.54,140.14v28.46l24.27,13.58,24.28,14V3625.54l-48.55-28v140.13l-48.54-140.13v-28Z" transform="translate(-3951.21 -3512.43)"/>
      <path class="cls-5" d="M3952.21,3541.46v280.71l48.55,27.59V3709.62l48.54,140.14v28.46l24.27,13.58,24.28,14V3625.54l-48.55-28v140.13l-48.54-140.13v-28Z" transform="translate(-3951.21 -3512.43)"/>
      <polygon class="cls-4" points="364.66 296.63 316.87 324.66 267.95 296.63 316.87 268.39 364.66 296.63"/>
      <polygon class="cls-5" points="364.66 296.63 316.87 324.66 267.95 296.63 316.87 268.39 364.66 296.63"/>
      <path class="cls-6" d="M4194.62,3626q.15-13.92.31-27.84l48.23,27.84v28Z" transform="translate(-3951.21 -3512.43)"/>
      <path class="cls-5" d="M4194.62,3626q.15-13.92.31-27.84l48.23,27.84v28Z" transform="translate(-3951.21 -3512.43)"/>
      <path class="cls-4" d="M4195.11,3597.71l96.22-56.56,49.38,28.84-97.92,55.24-47.68-27.52" transform="translate(-3951.21 -3512.43)"/>
      <path class="cls-5" d="M4195.11,3597.71l96.22-56.56,49.38,28.84-97.92,55.24Z" transform="translate(-3951.21 -3512.43)"/>
      <path class="cls-4" d="M4340.48,3569.94l24.16,13.38-24.26,14.46c0-.45.1-26.75.1-27.19v-.65" transform="translate(-3951.21 -3512.43)"/>
      <path class="cls-5" d="M4340.48,3569.94l24.16,13.38-24.26,14.46c0-.45.1-26.75.1-27.19Z" transform="translate(-3951.21 -3512.43)"/>
      <path class="cls-6" d="M4170.66,3639.75V3865l48.5,27.93q.17-112.41.32-224.83l-48.82-28.35" transform="translate(-3951.21 -3512.43)"/>
      <path class="cls-5" d="M4170.66,3639.75V3865l48.5,27.93q.17-112.41.32-224.83Z" transform="translate(-3951.21 -3512.43)"/>
      <path class="cls-6" d="M4219.16,3892.93l24.42-14,0,27.35-24.45-13.36" transform="translate(-3951.21 -3512.43)"/>
      <path class="cls-5" d="M4219.16,3892.93l24.42-14,0,27.35Z" transform="translate(-3951.21 -3512.43)"/>
      <polygon class="cls-4" points="413.2 212.12 389.31 198.32 389.31 226.35 413.2 212.12"/>
      <polygon class="cls-9" points="413.2 212.12 389.31 198.32 389.31 226.35 413.2 212.12"/>
      <polygon class="cls-4" points="389.31 198.32 340.58 170.4 292.22 198.32 340.8 226.5 389.31 198.32"/>
      <polygon class="cls-5" points="389.31 198.32 340.58 170.4 292.22 198.32 340.8 226.5 389.31 198.32"/>
      <polygon class="cls-6" points="340.8 282.63 364.66 296.63 364.66 268.39 340.8 282.63"/>
      <polygon class="cls-5" points="340.8 282.63 364.66 296.63 364.66 268.39 340.8 282.63"/>
      <polygon class="cls-6" points="340.8 226.5 340.8 282.63 292.22 254.38 292.22 198.32 340.8 226.5"/>
      <polygon class="cls-5" points="340.8 226.5 340.8 282.63 292.22 254.38 292.22 198.32 340.8 226.5"/>
      <path class="cls-4" d="M4170.66,3639.75l24.27-14,48.23,28.3-23.68,14.07-48.82-28.35" transform="translate(-3951.21 -3512.43)"/>
      <path class="cls-5" d="M4170.66,3639.75l24.27-14,48.23,28.3-23.68,14.07Z" transform="translate(-3951.21 -3512.43)"/>
      <path class="cls-8" d="M4364.64,3583.32l-.12,28.66-96.44,55.68V3837.1l47.79-28v-28.25L4292,3795.06v-56.13l48.5-28.17v28l23.9-14.23v83.85l-23.81,13.78q.06,13.83.11,27.67l-97.11,56.44,0-27.35-24.42,14q.17-112.41.32-224.83l23.68-14.07q-.18-14.4-.37-28.8L4340.7,3570q-.15,13.89-.32,27.79l24.26-14.46" transform="translate(-3951.21 -3512.43)"/>
      <path class="cls-5" d="M4364.64,3583.32l-.12,28.66-96.44,55.68V3837.1l47.79-28v-28.25L4292,3795.06v-56.13l48.5-28.17v28l23.9-14.23v83.85l-23.81,13.78q.06,13.83.11,27.67l-97.11,56.44,0-27.35-24.42,14q.17-112.41.32-224.83l23.68-14.07q-.18-14.4-.37-28.8L4340.7,3570q-.15,13.89-.32,27.79Z" transform="translate(-3951.21 -3512.43)"/>
    </g>
  </g>
</svg>
