<?xml version="1.0" encoding="utf-8"?>
<!-- Generator: Adobe Illustrator 23.0.1, SVG Export Plug-In . SVG Version: 6.00 Build 0)  -->
<svg version="1.1" id="Calque_1" xmlns="http://www.w3.org/2000/svg" xmlns:xlink="http://www.w3.org/1999/xlink" x="0px" y="0px"
	 viewBox="0 0 713.5 366.2" style="enable-background:new 0 0 713.5 366.2;" xml:space="preserve">
<style type="text/css">
	.st0{fill:#E57654;stroke:#000000;stroke-width:2;stroke-linejoin:round;}
	.st1{fill:#35A6B1;stroke:#000000;stroke-width:2;stroke-linejoin:round;}
	.st2{fill:#EA9858;stroke:#000000;stroke-width:2;stroke-linejoin:round;}
	.st3{fill:none;stroke:#000000;stroke-miterlimit:10;}
	.st4{fill:#3B98A0;stroke:#000000;stroke-width:2;stroke-linejoin:round;}
	.st5{fill:#E87050;stroke:#000000;stroke-width:2;stroke-linejoin:round;}
	.st6{fill:none;stroke:#000000;stroke-width:2;stroke-linejoin:round;}
</style>
<g id="Calque_5">
	<polygon class="st0" points="327.6,85.1 279.5,56.8 376.2,1 424.7,29 	"/>
	<polygon class="st0" points="327.6,113.1 279.5,84.9 255.4,99 303.8,126.9 	"/>
	<polygon class="st0" points="449.4,42.8 424.7,29 424.7,57.1 	"/>
	<polygon class="st1" points="279.5,56.8 279.5,84.9 327.6,113.1 327.6,85.1 	"/>
	<path class="st1" d="M255.4,99l48.4,27.9l-0.3,224.2l-48.7-28.2L255.4,99z"/>
	<path class="st1" d="M327.7,365.2l0.2-28.1l-24.4,14C311.6,355.8,319.6,360.5,327.7,365.2z"/>
	<path class="st2" d="M327.6,85.1l97.1-56v28l24.7-14.2L449,267.3l-24,13.6l-0.1,28.2l-97.1,56.1l0.2-28.1l-24.2,14V126.9l23.9-13.8
		L327.6,85.1L327.6,85.1z"/>
	<path class="st1" d="M352.3,126.2l47.8-27.5v168.5l-47.3,27.7C352.7,238.7,352.5,182.4,352.3,126.2z"/>
	<path class="st0" d="M352.7,295l47.4-27.8l-47.4-28.3V295z"/>
	<line class="st3" x1="376.4" y1="196.5" x2="376.4" y2="196.5"/>
	<path class="st2" d="M422.1,325.5"/>
	<path class="st2" d="M326.3,364.5"/>
	<path class="st4" d="M324.4,366"/>
	<path class="st4" d="M301.8,350.1"/>
	<path class="st5" d="M348.7,259.1"/>
	<g>
		<path class="st1" d="M134,365.2l48.8-28.1c0.3-36,0.5-72.1,0.8-108.1l-98,108C101.8,346.4,117.9,355.8,134,365.2z"/>
		<path class="st1" d="M207,295l-48.4,27.7c-0.1-18.7-0.3-37.3-0.4-56l48.7-28.2C207,257.3,207,276.2,207,295z"/>
		<path class="st0" d="M207,238.2l-24-13.4l-48.4,27.6l23.7,14.4L207,238.2z"/>
		<polygon class="st0" points="182.8,56.4 109.9,14.4 61.8,42.6 133.8,85.1 		"/>
		<path class="st2" d="M158.7,322.7l-25-13.6v55.2l-72.5-41.4v-56.1l-48.4-28.3v-56.1l49-139.8l72.4,42.1c0,56,0,112,0,167.9
			c8,4.7,16,9.4,24,14.1L158.7,322.7z"/>
		<path class="st1" d="M182.8,56.7c0,56,0,112,0,168l-48.5,27.9c0-56,0-112,0-167.9L182.8,56.7z"/>
		<path class="st1" d="M85.6,224.4l0.2-112.5l-28.1,95.9L85.6,224.4z"/>
		<path class="st0" d="M85.7,225l-28-16.6l28-16.5V225z"/>
		<path class="st2" d="M0,227.6"/>
		<path class="st4" d="M189.7,316.3"/>
		<path class="st4" d="M195.7,219.1"/>
		<path class="st5" d="M218.4,213.9"/>
		<path class="st5" d="M228.7,348.3"/>
		<path class="st4" d="M193.1,65.7"/>
		<path class="st2" d="M62.2,38.5"/>
	</g>
	<g>
		<path class="st1" d="M618.8,365.2l48.7-28.1c0.3-36,0.5-72.1,0.8-108.1l-97.9,108C586.6,346.4,602.7,355.8,618.8,365.2z"/>
		<path class="st1" d="M691.8,295l-48.3,27.7c-0.1-18.7-0.3-37.3-0.4-56l48.7-28.2C691.8,257.3,691.8,276.2,691.8,295z"/>
		<path class="st0" d="M691.8,238.2l-24-13.4l-48.4,27.6l23.7,14.4L691.8,238.2z"/>
		<polygon class="st0" points="667.6,56.4 594.7,14.4 546.6,42.6 618.6,85.1 		"/>
		<path class="st2" d="M643.5,322.7l-25-13.6v55.2L546,322.9v-56.1l-48.4-28.4v-56l48.9-139.8l72.4,42.1c0,56,0,112,0,167.9
			c8,4.7,16,9.4,24,14.1L643.5,322.7z"/>
		<path class="st1" d="M667.6,56.7c0,56,0,112,0,168l-48.5,27.9c0-56,0-112,0-167.9L667.6,56.7z"/>
		<path class="st1" d="M570.4,224.4l0.2-112.5l-28.1,95.9L570.4,224.4z"/>
		<path class="st0" d="M570.5,225l-28-16.6l28-16.5V225z"/>
		<path class="st2" d="M484.8,227.6"/>
		<path class="st4" d="M674.5,316.3"/>
		<path class="st4" d="M680.5,219.1"/>
		<path class="st5" d="M703.2,213.9"/>
		<path class="st5" d="M713.5,348.3"/>
		<path class="st4" d="M677.9,65.7"/>
		<path class="st2" d="M547,38.5"/>
	</g>
	<line class="st6" x1="218.4" y1="70.4" x2="218.4" y2="70.4"/>
</g>
</svg>
