<svg id="Calque_1" data-name="Calque 1" xmlns="http://www.w3.org/2000/svg" viewBox="0 0 874.02 506.39">
  <defs>
    <style>
      .cls-1 {
        fill: #e87050;
      }

      .cls-1, .cls-2, .cls-3, .cls-4, .cls-5, .cls-6, .cls-7 {
        stroke: #000;
      }

      .cls-1, .cls-2, .cls-3, .cls-5, .cls-6, .cls-7 {
        stroke-linejoin: round;
      }

      .cls-1, .cls-2, .cls-3, .cls-5, .cls-7 {
        stroke-width: 2px;
      }

      .cls-2 {
        fill: #3b98a0;
      }

      .cls-3 {
        fill: #ea9858;
      }

      .cls-4, .cls-5 {
        fill: none;
      }

      .cls-4 {
        stroke-miterlimit: 10;
      }

      .cls-6, .cls-7 {
        fill: #010202;
      }

      .cls-6 {
        stroke-linecap: round;
      }
    </style>
  </defs>
  <g id="Calque_5" data-name="Calque 5">
    <polygon class="cls-1" points="508.84 85.08 460.68 56.84 557.39 1 605.93 29.03 508.84 85.08"/>
    <polygon class="cls-1" points="508.84 113.11 460.68 84.87 436.59 98.99 484.95 126.91 508.84 113.11"/>
    <polygon class="cls-1" points="630.58 42.83 605.93 29.03 605.93 57.06 630.58 42.83"/>
    <polygon class="cls-2" points="460.68 56.84 460.68 84.87 508.84 113.11 508.84 85.08 460.68 56.84"/>
    <path class="cls-2" d="M436.59,99,485,126.91l-.27,224.17L436,322.88Z"/>
    <path class="cls-2" d="M508.93,365.19l.18-28.1-24.43,14Q496.8,358.14,508.93,365.19Z"/>
    <path class="cls-3" d="M508.84,85.08l97.09-56v28l24.65-14.23-.38,224.43-24,13.64-.06,28.18-97.19,56.11.18-28.1-24.16,14V126.91l23.89-13.8v-28Z"/>
    <path class="cls-2" d="M533.47,126.17l47.81-27.52V267.19l-47.23,27.72Q533.77,210.53,533.47,126.17Z"/>
    <path class="cls-1" d="M533.86,295l47.42-27.8-47.42-28.28Z"/>
    <line class="cls-4" x1="557.57" y1="196.54" x2="557.57" y2="196.54"/>
    <path class="cls-3" d="M603.31,325.48"/>
    <path class="cls-3" d="M507.5,364.45"/>
    <path class="cls-2" d="M505.63,366"/>
    <path class="cls-2" d="M483.05,350.14"/>
    <path class="cls-1" d="M529.89,259.09"/>
    <g>
      <path class="cls-2" d="M315.22,365.24,364,337.12q.41-54.06.82-108.11L266.87,337Q291.05,351.1,315.22,365.24Z"/>
      <path class="cls-2" d="M388.22,295,339.86,322.7q-.19-28-.38-56l48.73-28.24Q388.23,266.75,388.22,295Z"/>
      <path class="cls-1" d="M388.22,238.24l-24-13.45-48.36,27.58,23.67,14.37Z"/>
      <polygon class="cls-1" points="363.96 56.43 291.14 14.39 242.98 42.64 315.04 85.11 363.96 56.43"/>
      <path class="cls-3" d="M339.87,322.7l-25-13.58V364.3L242.4,322.91V266.86L194,238.49V182.44L243,42.63l72.41,42.09q0,84,.05,167.9,12,7,24.05,14.11Z"/>
      <path class="cls-2" d="M364,56.71q0,84,0,168l-48.52,27.92q0-84-.05-167.9Z"/>
      <path class="cls-2" d="M266.77,224.36,267,111.87l-28.14,95.88Z"/>
      <path class="cls-1" d="M266.86,225l-28-16.61,28-16.47Z"/>
      <path class="cls-3" d="M181.16,227.57"/>
      <path class="cls-2" d="M370.94,316.26"/>
      <path class="cls-2" d="M376.94,219.05"/>
      <path class="cls-1" d="M399.58,213.92"/>
      <path class="cls-1" d="M409.91,348.34"/>
      <path class="cls-2" d="M374.28,65.71"/>
      <path class="cls-3" d="M243.42,38.53"/>
    </g>
    <g>
      <path class="cls-2" d="M800,365.24l48.74-28.12q.4-54.06.82-108.11L751.67,337Q775.85,351.1,800,365.24Z"/>
      <path class="cls-2" d="M873,295,824.66,322.7q-.2-28-.38-56L873,238.49Q873,266.75,873,295Z"/>
      <path class="cls-1" d="M873,238.24l-24-13.45-48.36,27.58,23.67,14.37Z"/>
      <polygon class="cls-1" points="848.76 56.43 775.94 14.39 727.78 42.64 799.84 85.11 848.76 56.43"/>
      <path class="cls-3" d="M824.67,322.7l-25-13.58V364.3L727.2,322.91V266.86l-48.36-28.37V182.44L727.77,42.63l72.41,42.09q0,84,.05,167.9,12,7,24,14.11Z"/>
      <path class="cls-2" d="M848.77,56.71q0,84,0,168l-48.52,27.92q0-84-.05-167.9Z"/>
      <path class="cls-2" d="M751.57,224.36l.19-112.49-28.14,95.88Z"/>
      <path class="cls-1" d="M751.66,225l-27.95-16.61,27.95-16.47Z"/>
      <path class="cls-3" d="M666,227.57"/>
      <path class="cls-2" d="M855.74,316.26"/>
      <path class="cls-2" d="M861.74,219.05"/>
      <path class="cls-1" d="M884.38,213.92"/>
      <path class="cls-1" d="M894.71,348.34"/>
      <path class="cls-2" d="M859.08,65.71"/>
      <path class="cls-3" d="M728.22,38.53"/>
    </g>
    <line class="cls-5" x1="399.58" y1="70.42" x2="399.58" y2="70.42"/>
  </g>
  <g id="Calque_8" data-name="Calque 8">
    <polygon class="cls-6" points="582.18 351.08 630.58 322.92 678.85 350.62 727.2 322.92 800.43 364.99 752.27 393.01 776.54 407.03 728 435.05 582.18 351.08"/>
    <path class="cls-7" d="M703.75,420.82l-49.69-28.34L509.55,476.79l48.62,28.14Z"/>
    <path class="cls-7" d="M618.71,372.08,528,487.46,485.6,463l96.82-111.44Z"/>
    <polygon class="cls-7" points="508.93 365.19 460.49 337.26 217.91 477.31 266.45 504.93 508.93 365.19"/>
    <g>
      <polygon class="cls-6" points="97.57 351.54 145.97 323.38 194.24 351.08 242.6 323.38 315.82 365.45 267.66 393.47 291.93 407.48 243.39 435.51 97.57 351.54"/>
      <path class="cls-7" d="M219.14,421.28l-49.69-28.34L24.94,477.25l48.62,28.14Z"/>
      <path class="cls-7" d="M134.11,372.54,43.39,487.92,1,463.41,97.82,352Z"/>
    </g>
  </g>
</svg>
